Coordinates
version=1
nRows=10
nColumns=40
inDegrees=yes

Units are S.I. units (second, meters, Newtons, ...)
Angles are in degrees.

endheader
time	pelvis_tilt	pelvis_list	pelvis_rotation	pelvis_tx	pelvis_ty	pelvis_tz	hip_flexion_r	hip_adduction_r	hip_rotation_r	knee_angle_r	knee_angle_r_beta	ankle_angle_r	subtalar_angle_r	mtp_angle_r	hip_flexion_l	hip_adduction_l	hip_rotation_l	knee_angle_l	knee_angle_l_beta	ankle_angle_l	subtalar_angle_l	mtp_angle_l	lumbar_extension	lumbar_bending	lumbar_rotation	arm_flex_r	arm_add_r	arm_rot_r	elbow_flex_r	pro_sup_r	wrist_flex_r	wrist_dev_r	arm_flex_l	arm_add_l	arm_rot_l	elbow_flex_l	pro_sup_l	wrist_flex_l	wrist_dev_l
      4.63500000	     -2.34364176	     -3.96542251	     -2.02029601	      0.73325680	      0.93583417	      0.42682410	     30.03739202	     -5.64027496	     -7.31846158	     50.80555777	     50.80555777	      3.93443580	    -13.43854488	      0.51285661	      9.99209153	     -2.88061319	     -7.96763952	     17.92445827	     17.92445827	     12.93498779	     -6.76618206	     -4.65955634	     -9.71878628	      4.77375994	      0.11522255	     -1.32935329	    -13.91179574	      1.69577013	     26.75070801	     46.62353494	      0.00000000	      0.00000000	      8.64546617	    -14.90919491	     -4.95868092	     54.33618747	     46.62078677	      0.00000000	      0.00000000
      4.64857143	     -2.53014534	     -3.92738408	     -2.36070886	      0.73215421	      0.93567882	      0.42690387	     30.25061646	     -5.40460982	     -7.30408190	     47.39484385	     47.39484385	      4.03958886	    -12.22696475	      0.63313983	      9.45447321	     -2.80798524	     -8.28037240	     17.37965027	     17.37965027	     13.13343484	     -6.62789931	     -4.78927405	     -9.53690803	      4.76851548	     -0.02076532	     -2.99591633	    -14.16536008	      1.54584057	     25.94906662	     46.65221611	      0.00000000	      0.00000000	      9.25990807	    -15.33151987	     -5.32756591	     55.17645711	     46.66794481	      0.00000000	      0.00000000
      4.66214286	     -2.45429573	     -3.79288474	     -2.77436142	      0.73131080	      0.93583051	      0.42708310	     29.99803408	     -5.27730238	     -7.37954701	     43.68411602	     43.68411602	      4.12711636	    -10.59640297	      0.34866734	      8.46001789	     -2.60649349	     -8.75176972	     16.54775877	     16.54775877	     13.18373930	     -6.32579832	     -5.17949346	     -9.69389056	      4.63229398	      0.31930548	     -4.68833251	    -14.42764428	      1.10575921	     24.90260398	     46.71465464	      0.00000000	      0.00000000	      9.93515224	    -15.40353518	     -5.94215473	     56.94392871	     46.74961399	      0.00000000	      0.00000000
      4.67571429	     -2.62400132	     -3.71731317	     -3.14889435	      0.73033166	      0.93547788	      0.42746576	     29.91540148	     -5.03293286	     -7.55985590	     39.82862884	     39.82862884	      4.01898803	     -9.04633951	      0.41485984	      7.87257991	     -2.49618860	     -9.08648181	     15.95192118	     15.95192118	     13.31144401	     -6.18172241	     -5.54173271	     -9.53436847	      4.54262892	      0.18001209	     -6.15956005	    -14.66784588	      0.73118012	     24.20432738	     46.76058254	      0.00000000	      0.00000000	     10.34089747	    -15.70901140	     -6.42885012	     58.15223005	     46.80957815	      0.00000000	      0.00000000
      4.68928571	     -2.66759374	     -3.51990609	     -3.56085254	      0.72958280	      0.93505115	      0.42796030	     29.52828919	     -4.88964131	     -7.79756601	     35.75195263	     35.75195263	      3.37963397	     -7.40490765	     -1.50356054	      6.95443299	     -2.19621655	     -9.39697595	     14.92705723	     14.92705723	     12.56926773	     -6.49738596	     -7.65484969	     -9.58997763	      4.28436650	     -0.35327617	     -7.04108835	    -14.48732316	     -2.47541969	     23.20466957	     47.05668147	      0.00000000	      0.00000000	      9.69986312	    -15.98343667	     -8.45843391	     61.70428695	     47.03364130	      0.00000000	      0.00000000
      4.70285714	     -2.77194574	     -3.36824227	     -3.93744587	      0.72882957	      0.93450009	      0.42860816	     29.18303132	     -4.64913336	     -8.09011632	     31.83171632	     31.83171632	      3.35442848	     -5.45502463	     -0.97773822	      6.30206220	     -2.00659088	     -9.75681324	     14.36774661	     14.36774661	     12.78560766	     -6.28689383	     -7.80524107	     -9.48264493	      4.12302016	     -0.26324372	     -8.44943461	    -14.72763559	     -2.78261448	     22.63687077	     47.09145422	      0.00000000	      0.00000000	     10.36088659	    -16.18791966	     -8.74626508	     62.54099235	     47.07375610	      0.00000000	      0.00000000
      4.71642857	     -2.82246312	     -3.13710121	     -4.32934312	      0.72821645	      0.93380738	      0.42939442	     28.77217734	     -4.48390059	     -8.45388885	     28.11940607	     28.11940607	      3.34596085	     -3.25360540	     -0.32585315	      5.56907030	     -1.73111709	    -10.19514831	     13.76810405	     13.76810405	     12.96462747	     -5.98971664	     -8.10706177	     -9.43078491	      3.85173983	     -0.15100738	     -9.81859941	    -14.88307071	     -3.19627476	     22.30750323	     47.12515601	      0.00000000	      0.00000000	     10.92553363	    -16.38055759	     -9.11681559	     63.71392560	     47.12411765	      0.00000000	      0.00000000
      4.73000000	     -2.88106947	     -2.87163632	     -4.70197966	      0.72765977	      0.93296600	      0.43030840	     28.38092858	     -4.33190406	     -8.86071663	     24.67690768	     24.67690768	      3.19778667	     -1.09005995	      0.56883933	      4.87637764	     -1.42670822	    -10.63833195	     13.22079094	     13.22079094	     13.12434414	     -5.70595045	     -8.48664556	     -9.35422231	      3.52695276	     -0.09864489	    -11.08244345	    -14.99256198	     -3.63474996	     22.15382457	     47.15445866	      0.00000000	      0.00000000	     11.37242560	    -16.58622564	     -9.51218184	     64.94730939	     47.17732574	      0.00000000	      0.00000000
      4.74357143	     -2.86036642	     -2.52669281	     -5.06186560	      0.72730786	      0.93197222	      0.43129670	     28.12421980	     -4.37376035	     -9.50167312	     22.06171278	     22.06171278	      3.84457899	      1.63642914	      3.27132368	      4.03233749	     -1.01856714	    -11.12560003	     12.51023833	     12.51023833	     12.86801045	     -5.49195920	     -9.87790017	     -9.44597065	      3.09864843	     -0.30513204	    -12.39937018	    -14.92833635	     -6.00896686	     23.28941074	     47.27509972	      0.00000000	      0.00000000	     11.13949645	    -16.77711678	    -10.62376442	     67.63347020	     47.31448601	      0.00000000	      0.00000000
      4.75714286	     -2.85177231	     -2.25961279	     -5.36849581	      0.72700873	      0.93096944	      0.43243122	     27.75896794	     -4.21559363	     -9.84831983	     19.52561585	     19.52561585	      3.55925653	      3.25440848	      4.32825483	      3.30824237	     -0.70756081	    -11.46575433	     12.05263080	     12.05263080	     13.10751213	     -5.24771718	    -10.11395685	     -9.40937644	      2.78102381	     -0.21182230	    -13.39180030	    -14.97477945	     -6.39508659	     23.02618430	     47.30266294	      0.00000000	      0.00000000	     11.72044041	    -16.87293255	    -10.88141927	     68.41431822	     47.35293450	      0.00000000	      0.00000000
